<mxfile host="app.diagrams.net" modified="2021-08-16T22:27:52.039Z" agent="5.0 (Windows NT 10.0; Win64; x64) AppleWebKit/537.36 (KHTML, like Gecko) Chrome/92.0.4515.131 Safari/537.36" etag="55t0Izlk8gnG-SmK2VUm" version="14.9.5" type="github">
  <diagram id="MgygslrTmQnIvuTTrmRZ" name="Page-1">
    <mxGraphModel dx="1521" dy="824" grid="1" gridSize="10" guides="1" tooltips="1" connect="1" arrows="1" fold="1" page="1" pageScale="1" pageWidth="827" pageHeight="1169" math="0" shadow="0">
      <root>
        <mxCell id="0" />
        <mxCell id="1" parent="0" />
        <mxCell id="sz0qDTGmKt2krswzqvD6-9" style="edgeStyle=orthogonalEdgeStyle;rounded=0;orthogonalLoop=1;jettySize=auto;html=1;" edge="1" parent="1" source="sz0qDTGmKt2krswzqvD6-1" target="sz0qDTGmKt2krswzqvD6-3">
          <mxGeometry relative="1" as="geometry" />
        </mxCell>
        <mxCell id="sz0qDTGmKt2krswzqvD6-1" value="建筑信息工程咨询" style="rounded=1;whiteSpace=wrap;html=1;" vertex="1" parent="1">
          <mxGeometry x="294" y="120" width="120" height="60" as="geometry" />
        </mxCell>
        <mxCell id="sz0qDTGmKt2krswzqvD6-17" style="edgeStyle=orthogonalEdgeStyle;rounded=0;orthogonalLoop=1;jettySize=auto;html=1;" edge="1" parent="1" source="sz0qDTGmKt2krswzqvD6-2" target="sz0qDTGmKt2krswzqvD6-11">
          <mxGeometry relative="1" as="geometry" />
        </mxCell>
        <mxCell id="sz0qDTGmKt2krswzqvD6-2" value="市场价格5元/平方米" style="rounded=1;whiteSpace=wrap;html=1;" vertex="1" parent="1">
          <mxGeometry x="510" y="120" width="120" height="60" as="geometry" />
        </mxCell>
        <mxCell id="sz0qDTGmKt2krswzqvD6-5" style="edgeStyle=orthogonalEdgeStyle;rounded=0;orthogonalLoop=1;jettySize=auto;html=1;" edge="1" parent="1" source="sz0qDTGmKt2krswzqvD6-3" target="sz0qDTGmKt2krswzqvD6-4">
          <mxGeometry relative="1" as="geometry" />
        </mxCell>
        <mxCell id="sz0qDTGmKt2krswzqvD6-3" value="建筑信息通用平台" style="rounded=1;whiteSpace=wrap;html=1;" vertex="1" parent="1">
          <mxGeometry x="294" y="410" width="120" height="60" as="geometry" />
        </mxCell>
        <mxCell id="sz0qDTGmKt2krswzqvD6-19" style="edgeStyle=orthogonalEdgeStyle;rounded=0;orthogonalLoop=1;jettySize=auto;html=1;" edge="1" parent="1" source="sz0qDTGmKt2krswzqvD6-4" target="sz0qDTGmKt2krswzqvD6-18">
          <mxGeometry relative="1" as="geometry" />
        </mxCell>
        <mxCell id="sz0qDTGmKt2krswzqvD6-21" style="edgeStyle=orthogonalEdgeStyle;rounded=0;orthogonalLoop=1;jettySize=auto;html=1;" edge="1" parent="1" source="sz0qDTGmKt2krswzqvD6-4" target="sz0qDTGmKt2krswzqvD6-20">
          <mxGeometry relative="1" as="geometry" />
        </mxCell>
        <mxCell id="sz0qDTGmKt2krswzqvD6-23" style="edgeStyle=orthogonalEdgeStyle;rounded=0;orthogonalLoop=1;jettySize=auto;html=1;exitX=0.5;exitY=1;exitDx=0;exitDy=0;" edge="1" parent="1" source="sz0qDTGmKt2krswzqvD6-4" target="sz0qDTGmKt2krswzqvD6-22">
          <mxGeometry relative="1" as="geometry" />
        </mxCell>
        <mxCell id="sz0qDTGmKt2krswzqvD6-25" style="edgeStyle=orthogonalEdgeStyle;rounded=0;orthogonalLoop=1;jettySize=auto;html=1;exitX=0.5;exitY=1;exitDx=0;exitDy=0;" edge="1" parent="1" source="sz0qDTGmKt2krswzqvD6-4" target="sz0qDTGmKt2krswzqvD6-24">
          <mxGeometry relative="1" as="geometry" />
        </mxCell>
        <mxCell id="sz0qDTGmKt2krswzqvD6-27" style="edgeStyle=orthogonalEdgeStyle;rounded=0;orthogonalLoop=1;jettySize=auto;html=1;exitX=0.5;exitY=1;exitDx=0;exitDy=0;" edge="1" parent="1" source="sz0qDTGmKt2krswzqvD6-4" target="sz0qDTGmKt2krswzqvD6-26">
          <mxGeometry relative="1" as="geometry" />
        </mxCell>
        <mxCell id="sz0qDTGmKt2krswzqvD6-32" style="edgeStyle=orthogonalEdgeStyle;rounded=0;orthogonalLoop=1;jettySize=auto;html=1;exitX=0.5;exitY=1;exitDx=0;exitDy=0;" edge="1" parent="1" source="sz0qDTGmKt2krswzqvD6-4" target="sz0qDTGmKt2krswzqvD6-31">
          <mxGeometry relative="1" as="geometry" />
        </mxCell>
        <mxCell id="sz0qDTGmKt2krswzqvD6-4" value="建筑信息数据销售" style="rounded=1;whiteSpace=wrap;html=1;" vertex="1" parent="1">
          <mxGeometry x="294" y="555" width="120" height="60" as="geometry" />
        </mxCell>
        <mxCell id="sz0qDTGmKt2krswzqvD6-8" value="数&lt;br&gt;据&lt;br&gt;收&lt;br&gt;集" style="rounded=1;whiteSpace=wrap;html=1;" vertex="1" parent="1">
          <mxGeometry x="50" y="120" width="20" height="320" as="geometry" />
        </mxCell>
        <mxCell id="sz0qDTGmKt2krswzqvD6-10" value="数据挖掘" style="rounded=1;whiteSpace=wrap;html=1;" vertex="1" parent="1">
          <mxGeometry x="50" y="440" width="20" height="180" as="geometry" />
        </mxCell>
        <mxCell id="sz0qDTGmKt2krswzqvD6-12" style="edgeStyle=orthogonalEdgeStyle;rounded=0;orthogonalLoop=1;jettySize=auto;html=1;" edge="1" parent="1" source="sz0qDTGmKt2krswzqvD6-11">
          <mxGeometry relative="1" as="geometry">
            <mxPoint x="360" y="300" as="targetPoint" />
          </mxGeometry>
        </mxCell>
        <mxCell id="sz0qDTGmKt2krswzqvD6-28" style="edgeStyle=orthogonalEdgeStyle;rounded=0;orthogonalLoop=1;jettySize=auto;html=1;" edge="1" parent="1" source="sz0qDTGmKt2krswzqvD6-11" target="sz0qDTGmKt2krswzqvD6-15">
          <mxGeometry relative="1" as="geometry" />
        </mxCell>
        <mxCell id="sz0qDTGmKt2krswzqvD6-11" value="寻找边际成本" style="rounded=1;whiteSpace=wrap;html=1;" vertex="1" parent="1">
          <mxGeometry x="510" y="270" width="120" height="60" as="geometry" />
        </mxCell>
        <mxCell id="sz0qDTGmKt2krswzqvD6-16" style="edgeStyle=orthogonalEdgeStyle;rounded=0;orthogonalLoop=1;jettySize=auto;html=1;" edge="1" parent="1" source="sz0qDTGmKt2krswzqvD6-15" target="sz0qDTGmKt2krswzqvD6-3">
          <mxGeometry relative="1" as="geometry" />
        </mxCell>
        <mxCell id="sz0qDTGmKt2krswzqvD6-15" value="开放平台（Open Map）" style="rounded=1;whiteSpace=wrap;html=1;" vertex="1" parent="1">
          <mxGeometry x="500" y="410" width="140" height="60" as="geometry" />
        </mxCell>
        <mxCell id="sz0qDTGmKt2krswzqvD6-18" value="设计" style="rounded=1;whiteSpace=wrap;html=1;" vertex="1" parent="1">
          <mxGeometry x="230" y="710" width="120" height="60" as="geometry" />
        </mxCell>
        <mxCell id="sz0qDTGmKt2krswzqvD6-20" value="施工" style="rounded=1;whiteSpace=wrap;html=1;" vertex="1" parent="1">
          <mxGeometry x="360" y="710" width="120" height="60" as="geometry" />
        </mxCell>
        <mxCell id="sz0qDTGmKt2krswzqvD6-22" value="EPC" style="rounded=1;whiteSpace=wrap;html=1;" vertex="1" parent="1">
          <mxGeometry x="100" y="710" width="120" height="60" as="geometry" />
        </mxCell>
        <mxCell id="sz0qDTGmKt2krswzqvD6-24" value="建设单位" style="rounded=1;whiteSpace=wrap;html=1;" vertex="1" parent="1">
          <mxGeometry x="490" y="710" width="120" height="60" as="geometry" />
        </mxCell>
        <mxCell id="sz0qDTGmKt2krswzqvD6-26" value="个人" style="rounded=1;whiteSpace=wrap;html=1;fillColor=#f8cecc;strokeColor=#b85450;" vertex="1" parent="1">
          <mxGeometry x="620" y="710" width="120" height="60" as="geometry" />
        </mxCell>
        <mxCell id="sz0qDTGmKt2krswzqvD6-30" value="数据发部" style="rounded=1;whiteSpace=wrap;html=1;" vertex="1" parent="1">
          <mxGeometry x="50" y="620" width="20" height="160" as="geometry" />
        </mxCell>
        <mxCell id="sz0qDTGmKt2krswzqvD6-31" value="军队" style="rounded=1;whiteSpace=wrap;html=1;" vertex="1" parent="1">
          <mxGeometry x="750" y="710" width="120" height="60" as="geometry" />
        </mxCell>
      </root>
    </mxGraphModel>
  </diagram>
</mxfile>
